<svg xmlns="http://www.w3.org/2000/svg" version="1.1" xmlns:xlink="http://www.w3.org/1999/xlink" xmlns:svgjs="http://svgjs.dev/svgjs" width="1500" height="1500" viewBox="0 0 1500 1500"><rect width="1500" height="1500" fill="#000000"></rect><g transform="matrix(0.6666666666666666,0,0,0.6666666666666666,249.39393939393938,647.8580628375156)"><svg viewBox="0 0 396 81" data-background-color="#dedede" preserveAspectRatio="xMidYMid meet" height="306" width="1500" xmlns="http://www.w3.org/2000/svg" xmlns:xlink="http://www.w3.org/1999/xlink"><g id="tight-bounds" transform="matrix(1,0,0,1,0.2400000000000091,0.05635740275113221)"><svg viewBox="0 0 395.52 80.88728519449774" height="80.88728519449774" width="395.52"><g><svg viewBox="0 0 522.4755605379232 106.85080317654244" height="80.88728519449774" width="395.52"><g transform="matrix(1,0,0,1,126.95556053792325,14.76736860109957)"><svg viewBox="0 0 395.52 77.3160659743433" height="77.3160659743433" width="395.52"><g id="textblocktransform"><svg viewBox="0 0 395.52 77.3160659743433" height="77.3160659743433" width="395.52" id="textblock"><g><svg viewBox="0 0 395.52 77.3160659743433" height="77.3160659743433" width="395.52"><g transform="matrix(1,0,0,1,0,0)"><svg width="395.52" viewBox="4.5 -37 243.53 48" height="77.3160659743433" data-palette-color="#000000"><g class="wordmark-text-0" data-fill-palette-color="primary" id="text-0"><path d="M29.55-2.8L26.25 0.6 9.25-16.1 9.25 0 4.5 0 4.5-35 9.25-35 9.25-19.05 24.15-35.15 27.35-32.2 13.7-18 29.55-2.8ZM41.95 0.6L41.95 0.6Q39.65 0.6 37.8-0.28 35.95-1.15 34.87-3.1 33.8-5.05 33.8-8.15L33.8-8.15 33.8-37 38.3-37 38.3-8.6Q38.3-5.9 39.42-4.6 40.55-3.3 42.55-3.3L42.55-3.3Q43.5-3.3 44.42-3.53 45.35-3.75 46-4.05L46-4.05 47.1-0.4Q46.2 0 44.87 0.3 43.55 0.6 41.95 0.6ZM61.74 0.6L61.74 0.6Q56.14 0.6 52.87-2.98 49.59-6.55 49.59-13L49.59-13Q49.59-16.9 51.07-19.98 52.55-23.05 55.2-24.83 57.84-26.6 61.34-26.6L61.34-26.6Q65.09-26.6 67.57-24.98 70.05-23.35 71.3-20.6 72.55-17.85 72.55-14.55L72.55-14.55Q72.55-12.8 72.39-11.15L72.39-11.15 54.2-11.15Q54.64-7.5 56.74-5.45 58.84-3.4 62.3-3.4L62.3-3.4Q64.55-3.4 66.34-3.88 68.14-4.35 69.8-5.1L69.8-5.1 70.84-1.25Q69.05-0.45 66.8 0.08 64.55 0.6 61.74 0.6ZM54.14-14.8L54.14-14.8 68.39-14.8Q68.39-18.6 66.5-20.65 64.59-22.7 61.24-22.7L61.24-22.7Q58.34-22.7 56.45-20.68 54.55-18.65 54.14-14.8ZM83.99 11L79.49 11 79.49-19.35Q79.49-21.05 78.67-21.78 77.84-22.5 76.54-22.5L76.54-22.5 77.49-26Q82.09-26 83.24-22.35L83.24-22.35Q83.74-23.1 84.87-24.1 85.99-25.1 87.67-25.85 89.34-26.6 91.49-26.6L91.49-26.6Q94.49-26.6 97.12-25.03 99.74-23.45 101.34-20.48 102.94-17.5 102.94-13.25L102.94-13.25Q102.94-9.1 101.34-5.98 99.74-2.85 97.17-1.13 94.59 0.6 91.59 0.6L91.59 0.6Q89.29 0.6 87.29-0.33 85.29-1.25 83.99-2.45L83.99-2.45 83.99 11ZM90.69-3.4L90.69-3.4Q94.09-3.4 96.22-6.08 98.34-8.75 98.34-13.1L98.34-13.1Q98.34-16.1 97.27-18.25 96.19-20.4 94.42-21.55 92.64-22.7 90.49-22.7L90.49-22.7Q88.34-22.7 86.62-21.63 84.89-20.55 83.99-19.3L83.99-19.3 83.99-6.5Q85.29-5.15 86.99-4.28 88.69-3.4 90.69-3.4ZM114.64 11L110.14 11 110.14-19.35Q110.14-21.05 109.32-21.78 108.49-22.5 107.19-22.5L107.19-22.5 108.14-26Q112.74-26 113.89-22.35L113.89-22.35Q114.39-23.1 115.52-24.1 116.64-25.1 118.32-25.85 119.99-26.6 122.14-26.6L122.14-26.6Q125.14-26.6 127.77-25.03 130.39-23.45 131.99-20.48 133.59-17.5 133.59-13.25L133.59-13.25Q133.59-9.1 131.99-5.98 130.39-2.85 127.82-1.13 125.24 0.6 122.24 0.6L122.24 0.6Q119.94 0.6 117.94-0.33 115.94-1.25 114.64-2.45L114.64-2.45 114.64 11ZM121.34-3.4L121.34-3.4Q124.74-3.4 126.87-6.08 128.99-8.75 128.99-13.1L128.99-13.1Q128.99-16.1 127.92-18.25 126.84-20.4 125.07-21.55 123.29-22.7 121.14-22.7L121.14-22.7Q118.99-22.7 117.27-21.63 115.54-20.55 114.64-19.3L114.64-19.3 114.64-6.5Q115.94-5.15 117.64-4.28 119.34-3.4 121.34-3.4ZM149.79 0.6L149.79 0.6Q146.54 0.6 143.89-1.05 141.24-2.7 139.66-5.73 138.09-8.75 138.09-12.85L138.09-12.85Q138.09-16.75 139.66-19.85 141.24-22.95 144.01-24.78 146.79-26.6 150.39-26.6L150.39-26.6Q152.64-26.6 154.46-25.83 156.29-25.05 157.64-23.9L157.64-23.9 157.64-26 161.74-26 161.74-6.3Q161.74-4.4 162.66-3.83 163.59-3.25 164.69-3.25L164.69-3.25 163.74 0.25Q158.94 0.25 157.94-3.65L157.94-3.65Q156.79-2.05 154.81-0.73 152.84 0.6 149.79 0.6ZM150.79-3.4L150.79-3.4Q152.69-3.4 154.39-4.33 156.09-5.25 157.24-6.65L157.24-6.65 157.24-20.6Q155.89-21.55 154.26-22.13 152.64-22.7 150.84-22.7L150.84-22.7Q148.44-22.7 146.61-21.48 144.79-20.25 143.74-18.07 142.69-15.9 142.69-13L142.69-13Q142.69-10.2 143.74-8.03 144.79-5.85 146.64-4.63 148.49-3.4 150.79-3.4ZM175.19 0L170.69 0 170.69-26 175.03-26 175.03-21.65Q176.44-23.75 178.61-25.18 180.78-26.6 183.78-26.6L183.78-26.6Q188.19-26.6 190.36-23.95 192.53-21.3 192.53-16.95L192.53-16.95 192.53 0 188.03 0 188.03-16.45Q188.03-19.25 186.71-20.95 185.38-22.65 183.03-22.65L183.03-22.65Q180.74-22.65 178.69-21.03 176.63-19.4 175.19-17.2L175.19-17.2 175.19 0Z" fill="#ffffff" data-fill-palette-color="primary"></path><path d="M216.78 0L212.03 0 212.03-35 216.78-35 216.78 0ZM237.28 0L232.53 0 232.53-30.8 221.78-30.8 221.78-35 248.03-35 248.03-30.8 237.28-30.8 237.28 0Z" fill="#ffffff" data-fill-palette-color="secondary"></path></g></svg></g></svg></g></svg></g></svg></g><g><svg viewBox="0 0 108.70309294696418 106.85080317654244" height="106.85080317654244" width="108.70309294696418"><g><svg xmlns="http://www.w3.org/2000/svg" xmlns:xlink="http://www.w3.org/1999/xlink" version="1.1" x="0" y="0" viewBox="-345.9993836358223 257.9479943277313 99.75176572719312 98.0520056722687" enable-background="new -346 256 100 100" xml:space="preserve" height="106.85080317654244" width="108.70309294696418" class="icon-icon-0" data-fill-palette-color="accent" id="icon-0"><path d="M-246.455 327.152L-263.315 262.698S-264.558 257.942-269.317 257.948L-342.277 258.028S-347.036 258.032-345.792 262.789L-329.957 323.327C-322.809 307.643-314.754 290.026-314.162 288.728L-313.739 287.804-291.899 287.783-292.947 290.036C-298.932 302.906-306.715 319.811-312.183 331.98L-249.971 331.913C-249.97 331.912-245.211 331.906-246.455 327.152" fill="#ffffff" data-fill-palette-color="accent"></path><path d="M-296.864 290.954L-311.703 290.969C-320.797 310.861-337.461 347.365-338.128 349.043-339.722 353.05-337.782 355.278-336.957 356H-280.781L-282.656 351.196H-317.793C-317.837 351.198-317.9 351.201-317.977 351.201-319.965 351.201-321.975 349.997-321.983 347.307-321.985 346.678-321.987 345.728-308.834 316.938A5465 5465 0 0 1-296.864 290.954" fill="#ffffff" data-fill-palette-color="accent"></path></svg></g></svg></g></svg></g><defs></defs></svg><rect width="395.52" height="80.88728519449774" fill="none" stroke="none" visibility="hidden"></rect></g></svg></g></svg>